<mxfile host="app.diagrams.net" modified="2023-10-13T16:46:07.036Z" agent="Mozilla/5.0 (Windows NT 10.0; Win64; x64; rv:109.0) Gecko/20100101 Firefox/118.0" etag="SLv2E-GuUgLKVZqM46Ta" version="22.0.4" type="github">
  <diagram id="R2lEEEUBdFMjLlhIrx00" name="Page-1">
    <mxGraphModel dx="1434" dy="820" grid="1" gridSize="10" guides="1" tooltips="1" connect="1" arrows="1" fold="1" page="1" pageScale="1" pageWidth="1100" pageHeight="850" math="0" shadow="0" extFonts="Permanent Marker^https://fonts.googleapis.com/css?family=Permanent+Marker">
      <root>
        <mxCell id="0" />
        <mxCell id="1" parent="0" />
        <mxCell id="40Urg2ya4GdoKpef6m7U-6" style="edgeStyle=orthogonalEdgeStyle;rounded=0;orthogonalLoop=1;jettySize=auto;html=1;entryX=0.5;entryY=1;entryDx=0;entryDy=0;" parent="1" source="40Urg2ya4GdoKpef6m7U-1" target="40Urg2ya4GdoKpef6m7U-5" edge="1">
          <mxGeometry relative="1" as="geometry" />
        </mxCell>
        <mxCell id="40Urg2ya4GdoKpef6m7U-1" value="&lt;div&gt;Usuario&lt;/div&gt;" style="rounded=0;whiteSpace=wrap;html=1;" parent="1" vertex="1">
          <mxGeometry x="500" y="180" width="120" height="60" as="geometry" />
        </mxCell>
        <mxCell id="40Urg2ya4GdoKpef6m7U-2" value="PublicaciÃ³nes" style="rounded=0;whiteSpace=wrap;html=1;" parent="1" vertex="1">
          <mxGeometry x="340" y="410" width="120" height="60" as="geometry" />
        </mxCell>
        <mxCell id="40Urg2ya4GdoKpef6m7U-3" value="&lt;div&gt;Hashtags&lt;/div&gt;" style="rounded=0;whiteSpace=wrap;html=1;" parent="1" vertex="1">
          <mxGeometry x="650" y="410" width="120" height="60" as="geometry" />
        </mxCell>
        <mxCell id="40Urg2ya4GdoKpef6m7U-7" style="edgeStyle=orthogonalEdgeStyle;rounded=0;orthogonalLoop=1;jettySize=auto;html=1;entryX=0.5;entryY=0;entryDx=0;entryDy=0;" parent="1" source="40Urg2ya4GdoKpef6m7U-5" target="40Urg2ya4GdoKpef6m7U-1" edge="1">
          <mxGeometry relative="1" as="geometry" />
        </mxCell>
        <mxCell id="40Urg2ya4GdoKpef6m7U-5" value="seguir" style="rhombus;whiteSpace=wrap;html=1;" parent="1" vertex="1">
          <mxGeometry x="630" y="90" width="80" height="80" as="geometry" />
        </mxCell>
        <mxCell id="40Urg2ya4GdoKpef6m7U-10" style="edgeStyle=orthogonalEdgeStyle;rounded=0;orthogonalLoop=1;jettySize=auto;html=1;endArrow=none;endFill=0;" parent="1" source="40Urg2ya4GdoKpef6m7U-8" target="40Urg2ya4GdoKpef6m7U-2" edge="1">
          <mxGeometry relative="1" as="geometry" />
        </mxCell>
        <mxCell id="40Urg2ya4GdoKpef6m7U-44" style="edgeStyle=orthogonalEdgeStyle;rounded=0;orthogonalLoop=1;jettySize=auto;html=1;endArrow=none;endFill=0;" parent="1" source="40Urg2ya4GdoKpef6m7U-8" target="40Urg2ya4GdoKpef6m7U-39" edge="1">
          <mxGeometry relative="1" as="geometry" />
        </mxCell>
        <mxCell id="40Urg2ya4GdoKpef6m7U-8" value="postear" style="rhombus;whiteSpace=wrap;html=1;" parent="1" vertex="1">
          <mxGeometry x="360" y="180" width="80" height="80" as="geometry" />
        </mxCell>
        <mxCell id="40Urg2ya4GdoKpef6m7U-9" style="edgeStyle=orthogonalEdgeStyle;rounded=0;orthogonalLoop=1;jettySize=auto;html=1;entryX=0.008;entryY=0.633;entryDx=0;entryDy=0;entryPerimeter=0;endArrow=none;endFill=0;" parent="1" source="40Urg2ya4GdoKpef6m7U-8" target="40Urg2ya4GdoKpef6m7U-1" edge="1">
          <mxGeometry relative="1" as="geometry" />
        </mxCell>
        <mxCell id="40Urg2ya4GdoKpef6m7U-13" style="edgeStyle=orthogonalEdgeStyle;rounded=0;orthogonalLoop=1;jettySize=auto;html=1;entryX=1;entryY=0.5;entryDx=0;entryDy=0;endArrow=none;endFill=0;" parent="1" source="40Urg2ya4GdoKpef6m7U-12" target="40Urg2ya4GdoKpef6m7U-2" edge="1">
          <mxGeometry relative="1" as="geometry" />
        </mxCell>
        <mxCell id="40Urg2ya4GdoKpef6m7U-14" style="edgeStyle=orthogonalEdgeStyle;rounded=0;orthogonalLoop=1;jettySize=auto;html=1;entryX=0;entryY=0.5;entryDx=0;entryDy=0;endArrow=none;endFill=0;" parent="1" source="40Urg2ya4GdoKpef6m7U-12" target="40Urg2ya4GdoKpef6m7U-3" edge="1">
          <mxGeometry relative="1" as="geometry" />
        </mxCell>
        <mxCell id="40Urg2ya4GdoKpef6m7U-12" value="usar" style="rhombus;whiteSpace=wrap;html=1;" parent="1" vertex="1">
          <mxGeometry x="522.5" y="400" width="75" height="80" as="geometry" />
        </mxCell>
        <mxCell id="40Urg2ya4GdoKpef6m7U-15" value="&lt;div&gt;id_user&lt;/div&gt;" style="ellipse;whiteSpace=wrap;html=1;fontStyle=4" parent="1" vertex="1">
          <mxGeometry x="460" y="270" width="70" height="30" as="geometry" />
        </mxCell>
        <mxCell id="40Urg2ya4GdoKpef6m7U-16" value="correo" style="ellipse;whiteSpace=wrap;html=1;" parent="1" vertex="1">
          <mxGeometry x="550" y="340" width="70" height="40" as="geometry" />
        </mxCell>
        <mxCell id="40Urg2ya4GdoKpef6m7U-17" value="nombre" style="ellipse;whiteSpace=wrap;html=1;" parent="1" vertex="1">
          <mxGeometry x="508" y="300" width="57.5" height="40" as="geometry" />
        </mxCell>
        <mxCell id="40Urg2ya4GdoKpef6m7U-19" value="seguidores" style="ellipse;whiteSpace=wrap;html=1;" parent="1" vertex="1">
          <mxGeometry x="650" y="270" width="70" height="40" as="geometry" />
        </mxCell>
        <mxCell id="40Urg2ya4GdoKpef6m7U-21" value="foto" style="ellipse;whiteSpace=wrap;html=1;" parent="1" vertex="1">
          <mxGeometry x="580" y="290" width="70" height="40" as="geometry" />
        </mxCell>
        <mxCell id="40Urg2ya4GdoKpef6m7U-22" value="fecha_registro" style="ellipse;whiteSpace=wrap;html=1;" parent="1" vertex="1">
          <mxGeometry x="640" y="220" width="90" height="40" as="geometry" />
        </mxCell>
        <mxCell id="40Urg2ya4GdoKpef6m7U-24" style="edgeStyle=none;rounded=0;orthogonalLoop=1;jettySize=auto;html=1;entryX=0.125;entryY=1.067;entryDx=0;entryDy=0;exitX=0.5;exitY=0;exitDx=0;exitDy=0;entryPerimeter=0;" parent="1" source="40Urg2ya4GdoKpef6m7U-15" target="40Urg2ya4GdoKpef6m7U-1" edge="1">
          <mxGeometry relative="1" as="geometry">
            <mxPoint x="550" y="270" as="sourcePoint" />
            <mxPoint x="645" y="250" as="targetPoint" />
          </mxGeometry>
        </mxCell>
        <mxCell id="40Urg2ya4GdoKpef6m7U-25" style="edgeStyle=none;rounded=0;orthogonalLoop=1;jettySize=auto;html=1;entryX=0.317;entryY=1.017;entryDx=0;entryDy=0;entryPerimeter=0;" parent="1" source="40Urg2ya4GdoKpef6m7U-17" target="40Urg2ya4GdoKpef6m7U-1" edge="1">
          <mxGeometry relative="1" as="geometry">
            <mxPoint x="525" y="280" as="sourcePoint" />
            <mxPoint x="525" y="254" as="targetPoint" />
          </mxGeometry>
        </mxCell>
        <mxCell id="40Urg2ya4GdoKpef6m7U-26" style="edgeStyle=none;rounded=0;orthogonalLoop=1;jettySize=auto;html=1;entryX=0.583;entryY=1.033;entryDx=0;entryDy=0;exitX=0.3;exitY=0.125;exitDx=0;exitDy=0;entryPerimeter=0;exitPerimeter=0;" parent="1" source="40Urg2ya4GdoKpef6m7U-16" target="40Urg2ya4GdoKpef6m7U-1" edge="1">
          <mxGeometry relative="1" as="geometry">
            <mxPoint x="535" y="290" as="sourcePoint" />
            <mxPoint x="535" y="264" as="targetPoint" />
          </mxGeometry>
        </mxCell>
        <mxCell id="40Urg2ya4GdoKpef6m7U-27" style="edgeStyle=none;rounded=0;orthogonalLoop=1;jettySize=auto;html=1;entryX=0.75;entryY=1;entryDx=0;entryDy=0;exitX=0;exitY=0;exitDx=0;exitDy=0;" parent="1" source="40Urg2ya4GdoKpef6m7U-21" target="40Urg2ya4GdoKpef6m7U-1" edge="1">
          <mxGeometry relative="1" as="geometry">
            <mxPoint x="545" y="300" as="sourcePoint" />
            <mxPoint x="545" y="274" as="targetPoint" />
          </mxGeometry>
        </mxCell>
        <mxCell id="40Urg2ya4GdoKpef6m7U-28" style="edgeStyle=none;rounded=0;orthogonalLoop=1;jettySize=auto;html=1;entryX=0.883;entryY=1.05;entryDx=0;entryDy=0;exitX=0;exitY=0;exitDx=0;exitDy=0;entryPerimeter=0;" parent="1" source="40Urg2ya4GdoKpef6m7U-19" target="40Urg2ya4GdoKpef6m7U-1" edge="1">
          <mxGeometry relative="1" as="geometry">
            <mxPoint x="555" y="310" as="sourcePoint" />
            <mxPoint x="555" y="284" as="targetPoint" />
          </mxGeometry>
        </mxCell>
        <mxCell id="40Urg2ya4GdoKpef6m7U-29" style="edgeStyle=none;rounded=0;orthogonalLoop=1;jettySize=auto;html=1;entryX=1;entryY=1;entryDx=0;entryDy=0;exitX=0;exitY=0.5;exitDx=0;exitDy=0;" parent="1" source="40Urg2ya4GdoKpef6m7U-22" target="40Urg2ya4GdoKpef6m7U-1" edge="1">
          <mxGeometry relative="1" as="geometry">
            <mxPoint x="565" y="320" as="sourcePoint" />
            <mxPoint x="565" y="294" as="targetPoint" />
          </mxGeometry>
        </mxCell>
        <mxCell id="40Urg2ya4GdoKpef6m7U-30" value="N" style="text;html=1;align=center;verticalAlign=middle;resizable=0;points=[];autosize=1;strokeColor=none;fillColor=none;" parent="1" vertex="1">
          <mxGeometry x="460" y="450" width="30" height="30" as="geometry" />
        </mxCell>
        <mxCell id="40Urg2ya4GdoKpef6m7U-31" value="1" style="text;html=1;align=center;verticalAlign=middle;resizable=0;points=[];autosize=1;strokeColor=none;fillColor=none;" parent="1" vertex="1">
          <mxGeometry x="500" y="450" width="30" height="30" as="geometry" />
        </mxCell>
        <mxCell id="40Urg2ya4GdoKpef6m7U-32" value="0" style="text;html=1;align=center;verticalAlign=middle;resizable=0;points=[];autosize=1;strokeColor=none;fillColor=none;" parent="1" vertex="1">
          <mxGeometry x="590" y="450" width="30" height="30" as="geometry" />
        </mxCell>
        <mxCell id="40Urg2ya4GdoKpef6m7U-33" value="N" style="text;html=1;align=center;verticalAlign=middle;resizable=0;points=[];autosize=1;strokeColor=none;fillColor=none;" parent="1" vertex="1">
          <mxGeometry x="610" y="450" width="30" height="30" as="geometry" />
        </mxCell>
        <mxCell id="40Urg2ya4GdoKpef6m7U-34" value="1" style="text;html=1;align=center;verticalAlign=middle;resizable=0;points=[];autosize=1;strokeColor=none;fillColor=none;" parent="1" vertex="1">
          <mxGeometry x="470" y="180" width="30" height="30" as="geometry" />
        </mxCell>
        <mxCell id="40Urg2ya4GdoKpef6m7U-35" value="N" style="text;html=1;align=center;verticalAlign=middle;resizable=0;points=[];autosize=1;strokeColor=none;fillColor=none;" parent="1" vertex="1">
          <mxGeometry x="370" y="350" width="30" height="30" as="geometry" />
        </mxCell>
        <mxCell id="40Urg2ya4GdoKpef6m7U-36" value="0" style="text;html=1;align=center;verticalAlign=middle;resizable=0;points=[];autosize=1;strokeColor=none;fillColor=none;" parent="1" vertex="1">
          <mxGeometry x="370" y="270" width="30" height="30" as="geometry" />
        </mxCell>
        <mxCell id="40Urg2ya4GdoKpef6m7U-38" value="1" style="text;html=1;align=center;verticalAlign=middle;resizable=0;points=[];autosize=1;strokeColor=none;fillColor=none;" parent="1" vertex="1">
          <mxGeometry x="430" y="190" width="30" height="30" as="geometry" />
        </mxCell>
        <mxCell id="40Urg2ya4GdoKpef6m7U-42" style="edgeStyle=orthogonalEdgeStyle;rounded=0;orthogonalLoop=1;jettySize=auto;html=1;entryX=0;entryY=0.5;entryDx=0;entryDy=0;endArrow=none;endFill=0;" parent="1" source="40Urg2ya4GdoKpef6m7U-39" target="40Urg2ya4GdoKpef6m7U-40" edge="1">
          <mxGeometry relative="1" as="geometry" />
        </mxCell>
        <mxCell id="40Urg2ya4GdoKpef6m7U-39" value="&lt;div&gt;Comentarios&lt;/div&gt;" style="rounded=0;whiteSpace=wrap;html=1;" parent="1" vertex="1">
          <mxGeometry x="180" y="410" width="120" height="60" as="geometry" />
        </mxCell>
        <mxCell id="40Urg2ya4GdoKpef6m7U-40" value="tener" style="rhombus;whiteSpace=wrap;html=1;" parent="1" vertex="1">
          <mxGeometry x="270" y="500" width="80" height="80" as="geometry" />
        </mxCell>
        <mxCell id="40Urg2ya4GdoKpef6m7U-41" style="edgeStyle=orthogonalEdgeStyle;rounded=0;orthogonalLoop=1;jettySize=auto;html=1;entryX=0.25;entryY=1;entryDx=0;entryDy=0;endArrow=none;endFill=0;" parent="1" source="40Urg2ya4GdoKpef6m7U-40" target="40Urg2ya4GdoKpef6m7U-2" edge="1">
          <mxGeometry relative="1" as="geometry">
            <Array as="points">
              <mxPoint x="370" y="540" />
            </Array>
          </mxGeometry>
        </mxCell>
        <mxCell id="40Urg2ya4GdoKpef6m7U-45" value="&lt;div&gt;N&lt;/div&gt;" style="text;html=1;align=center;verticalAlign=middle;resizable=0;points=[];autosize=1;strokeColor=none;fillColor=none;" parent="1" vertex="1">
          <mxGeometry x="530" y="150" width="30" height="30" as="geometry" />
        </mxCell>
        <mxCell id="40Urg2ya4GdoKpef6m7U-46" value="N" style="text;html=1;align=center;verticalAlign=middle;resizable=0;points=[];autosize=1;strokeColor=none;fillColor=none;" parent="1" vertex="1">
          <mxGeometry x="620" y="180" width="30" height="30" as="geometry" />
        </mxCell>
        <mxCell id="40Urg2ya4GdoKpef6m7U-47" value="0" style="text;html=1;align=center;verticalAlign=middle;resizable=0;points=[];autosize=1;strokeColor=none;fillColor=none;" parent="1" vertex="1">
          <mxGeometry x="640" y="170" width="30" height="30" as="geometry" />
        </mxCell>
        <mxCell id="40Urg2ya4GdoKpef6m7U-48" value="0" style="text;html=1;align=center;verticalAlign=middle;resizable=0;points=[];autosize=1;strokeColor=none;fillColor=none;" parent="1" vertex="1">
          <mxGeometry x="600" y="100" width="30" height="30" as="geometry" />
        </mxCell>
        <mxCell id="40Urg2ya4GdoKpef6m7U-49" value="1" style="text;html=1;align=center;verticalAlign=middle;resizable=0;points=[];autosize=1;strokeColor=none;fillColor=none;" parent="1" vertex="1">
          <mxGeometry x="340" y="540" width="30" height="30" as="geometry" />
        </mxCell>
        <mxCell id="40Urg2ya4GdoKpef6m7U-50" value="N" style="text;html=1;align=center;verticalAlign=middle;resizable=0;points=[];autosize=1;strokeColor=none;fillColor=none;" parent="1" vertex="1">
          <mxGeometry x="210" y="470" width="30" height="30" as="geometry" />
        </mxCell>
        <mxCell id="40Urg2ya4GdoKpef6m7U-51" value="1" style="text;html=1;align=center;verticalAlign=middle;resizable=0;points=[];autosize=1;strokeColor=none;fillColor=none;" parent="1" vertex="1">
          <mxGeometry x="370" y="470" width="30" height="30" as="geometry" />
        </mxCell>
        <mxCell id="BHvJ1QJxabfoEZC44pT--4" style="edgeStyle=orthogonalEdgeStyle;rounded=0;orthogonalLoop=1;jettySize=auto;html=1;entryX=0.058;entryY=0.033;entryDx=0;entryDy=0;entryPerimeter=0;" parent="1" source="BHvJ1QJxabfoEZC44pT--1" target="40Urg2ya4GdoKpef6m7U-39" edge="1">
          <mxGeometry relative="1" as="geometry">
            <Array as="points">
              <mxPoint x="185" y="412" />
            </Array>
          </mxGeometry>
        </mxCell>
        <mxCell id="40Urg2ya4GdoKpef6m7U-52" value="0" style="text;html=1;align=center;verticalAlign=middle;resizable=0;points=[];autosize=1;strokeColor=none;fillColor=none;" parent="1" vertex="1">
          <mxGeometry x="240" y="535" width="30" height="30" as="geometry" />
        </mxCell>
        <mxCell id="BHvJ1QJxabfoEZC44pT--1" value="&lt;u&gt;id_comentario&lt;/u&gt;" style="ellipse;whiteSpace=wrap;html=1;" parent="1" vertex="1">
          <mxGeometry x="140" y="310" width="90" height="50" as="geometry" />
        </mxCell>
        <mxCell id="40Urg2ya4GdoKpef6m7U-53" value="N" style="text;html=1;align=center;verticalAlign=middle;resizable=0;points=[];autosize=1;strokeColor=none;fillColor=none;" parent="1" vertex="1">
          <mxGeometry x="200" y="360" width="30" height="30" as="geometry" />
        </mxCell>
        <mxCell id="BHvJ1QJxabfoEZC44pT--3" style="edgeStyle=orthogonalEdgeStyle;rounded=0;orthogonalLoop=1;jettySize=auto;html=1;entryX=0.167;entryY=1.017;entryDx=0;entryDy=0;entryPerimeter=0;" parent="1" source="BHvJ1QJxabfoEZC44pT--2" target="40Urg2ya4GdoKpef6m7U-39" edge="1">
          <mxGeometry relative="1" as="geometry">
            <Array as="points">
              <mxPoint x="200" y="530" />
              <mxPoint x="200" y="530" />
            </Array>
          </mxGeometry>
        </mxCell>
        <mxCell id="40Urg2ya4GdoKpef6m7U-54" value="0" style="text;html=1;align=center;verticalAlign=middle;resizable=0;points=[];autosize=1;strokeColor=none;fillColor=none;" parent="1" vertex="1">
          <mxGeometry x="320" y="180" width="30" height="30" as="geometry" />
        </mxCell>
        <mxCell id="BHvJ1QJxabfoEZC44pT--2" value="texto" style="ellipse;whiteSpace=wrap;html=1;fontStyle=0" parent="1" vertex="1">
          <mxGeometry x="140" y="550" width="90" height="50" as="geometry" />
        </mxCell>
        <mxCell id="BHvJ1QJxabfoEZC44pT--5" value="&lt;u&gt;id_publicacion&lt;br&gt;&lt;/u&gt;" style="ellipse;whiteSpace=wrap;html=1;" parent="1" vertex="1">
          <mxGeometry x="500" y="570" width="90" height="50" as="geometry" />
        </mxCell>
        <mxCell id="BHvJ1QJxabfoEZC44pT--6" value="&lt;span&gt;publicacion&lt;br&gt;&lt;/span&gt;" style="ellipse;whiteSpace=wrap;html=1;fontStyle=0" parent="1" vertex="1">
          <mxGeometry x="390" y="570" width="90" height="50" as="geometry" />
        </mxCell>
        <mxCell id="BHvJ1QJxabfoEZC44pT--7" style="rounded=0;orthogonalLoop=1;jettySize=auto;html=1;entryX=0.667;entryY=1.033;entryDx=0;entryDy=0;entryPerimeter=0;" parent="1" source="BHvJ1QJxabfoEZC44pT--6" target="40Urg2ya4GdoKpef6m7U-2" edge="1">
          <mxGeometry relative="1" as="geometry" />
        </mxCell>
        <mxCell id="BHvJ1QJxabfoEZC44pT--9" style="rounded=0;orthogonalLoop=1;jettySize=auto;html=1;entryX=0.875;entryY=1.017;entryDx=0;entryDy=0;entryPerimeter=0;" parent="1" source="BHvJ1QJxabfoEZC44pT--5" target="40Urg2ya4GdoKpef6m7U-2" edge="1">
          <mxGeometry relative="1" as="geometry" />
        </mxCell>
        <mxCell id="BHvJ1QJxabfoEZC44pT--12" style="rounded=0;orthogonalLoop=1;jettySize=auto;html=1;entryX=1;entryY=0.5;entryDx=0;entryDy=0;" parent="1" source="BHvJ1QJxabfoEZC44pT--10" target="40Urg2ya4GdoKpef6m7U-3" edge="1">
          <mxGeometry relative="1" as="geometry" />
        </mxCell>
        <mxCell id="BHvJ1QJxabfoEZC44pT--10" value="&lt;div&gt;&lt;u&gt;id_hashtag&lt;/u&gt;&lt;/div&gt;" style="ellipse;whiteSpace=wrap;html=1;" parent="1" vertex="1">
          <mxGeometry x="810" y="390" width="90" height="50" as="geometry" />
        </mxCell>
        <mxCell id="BHvJ1QJxabfoEZC44pT--13" style="rounded=0;orthogonalLoop=1;jettySize=auto;html=1;entryX=1;entryY=0.5;entryDx=0;entryDy=0;" parent="1" source="BHvJ1QJxabfoEZC44pT--11" target="40Urg2ya4GdoKpef6m7U-3" edge="1">
          <mxGeometry relative="1" as="geometry" />
        </mxCell>
        <mxCell id="BHvJ1QJxabfoEZC44pT--11" value="&lt;span&gt;hashtag&lt;br&gt;&lt;/span&gt;" style="ellipse;whiteSpace=wrap;html=1;fontStyle=0" parent="1" vertex="1">
          <mxGeometry x="810" y="450" width="90" height="50" as="geometry" />
        </mxCell>
        <mxCell id="BHvJ1QJxabfoEZC44pT--17" style="rounded=0;orthogonalLoop=1;jettySize=auto;html=1;" parent="1" source="BHvJ1QJxabfoEZC44pT--14" edge="1">
          <mxGeometry relative="1" as="geometry">
            <mxPoint x="420" y="480" as="targetPoint" />
          </mxGeometry>
        </mxCell>
        <mxCell id="BHvJ1QJxabfoEZC44pT--14" value="&lt;span&gt;likes&lt;br&gt;&lt;/span&gt;" style="ellipse;whiteSpace=wrap;html=1;fontStyle=0" parent="1" vertex="1">
          <mxGeometry x="320" y="600" width="90" height="50" as="geometry" />
        </mxCell>
        <mxCell id="BHvJ1QJxabfoEZC44pT--15" value="&lt;span&gt;retweet&lt;br&gt;&lt;/span&gt;" style="ellipse;whiteSpace=wrap;html=1;fontStyle=0" parent="1" vertex="1">
          <mxGeometry x="460" y="620" width="90" height="50" as="geometry" />
        </mxCell>
        <mxCell id="BHvJ1QJxabfoEZC44pT--21" style="rounded=0;orthogonalLoop=1;jettySize=auto;html=1;exitX=0.028;exitY=0.64;exitDx=0;exitDy=0;exitPerimeter=0;" parent="1" edge="1" source="BHvJ1QJxabfoEZC44pT--16">
          <mxGeometry relative="1" as="geometry">
            <mxPoint x="449.5" y="470" as="targetPoint" />
            <mxPoint x="610" y="630" as="sourcePoint" />
          </mxGeometry>
        </mxCell>
        <mxCell id="BHvJ1QJxabfoEZC44pT--16" value="&lt;span&gt;fecha_subida&lt;br&gt;&lt;/span&gt;" style="ellipse;whiteSpace=wrap;html=1;fontStyle=0" parent="1" vertex="1">
          <mxGeometry x="510" y="510" width="90" height="50" as="geometry" />
        </mxCell>
        <mxCell id="BHvJ1QJxabfoEZC44pT--18" style="rounded=0;orthogonalLoop=1;jettySize=auto;html=1;entryX=0.875;entryY=1.083;entryDx=0;entryDy=0;entryPerimeter=0;" parent="1" source="BHvJ1QJxabfoEZC44pT--15" target="40Urg2ya4GdoKpef6m7U-2" edge="1">
          <mxGeometry relative="1" as="geometry" />
        </mxCell>
      </root>
    </mxGraphModel>
  </diagram>
</mxfile>
